<svg width="35" height="30" viewBox="0 0 35 30" fill="none" xmlns="http://www.w3.org/2000/svg">
<g clip-path="url(#clip0)">
<path d="M17.3077 1.15381C28.8462 1.15381 33.4615 5.76922 33.4615 15C33.4615 24.2307 31.1538 28.8461 17.3077 28.8461C3.46155 28.8461 1.15385 24.2307 1.15385 15C1.15385 5.76922 5.76924 1.15381 17.3077 1.15381Z" fill="#1F434C"/>
<path fill-rule="evenodd" clip-rule="evenodd" d="M30.4781 3.753C33.4141 6.36277 34.6154 10.2052 34.6154 15C34.6154 19.6325 34.0592 23.5341 31.3928 26.2005C28.7384 28.8549 24.2824 30 17.3077 30C10.3329 30 5.87697 28.8549 3.22257 26.2005C0.556141 23.5341 0 19.6325 0 15C0 10.2052 1.20129 6.36277 4.13727 3.753C7.04179 1.1712 11.4206 0 17.3077 0C23.1947 0 27.5736 1.1712 30.4781 3.753ZM33.4615 15C33.4615 5.76925 28.8461 1.15385 17.3077 1.15385C5.76923 1.15385 1.15385 5.76925 1.15385 15C1.15385 24.2308 3.46154 28.8462 17.3077 28.8462C31.1538 28.8462 33.4615 24.2308 33.4615 15Z" fill="white"/>
<path fill-rule="evenodd" clip-rule="evenodd" d="M4.84618 12.2422L4.84618 14.0713L4.55149 14.0716C3.14737 14.0716 2.83535 14.5966 2.83535 15.5789C2.83535 15.7313 2.85268 15.9345 2.85268 15.9345L1.22321 15.9345C1.22321 15.9345 1.15387 15.6127 1.15387 15.0369C1.15387 12.886 2.62732 12.2422 4.84618 12.2422Z" fill="#FF7777"/>
<path d="M16.6154 12.8077C16.6154 16.3126 13.7741 19.1539 10.2692 19.1539C6.76436 19.1539 3.9231 16.3126 3.9231 12.8077C3.9231 9.30282 6.76436 6.46155 10.2692 6.46155C13.7741 6.46155 16.6154 9.30282 16.6154 12.8077Z" fill="white"/>
<path fill-rule="evenodd" clip-rule="evenodd" d="M10.2692 18C13.1369 18 15.4616 15.6753 15.4616 12.8077C15.4616 9.94007 13.1369 7.61539 10.2692 7.61539C7.40162 7.61539 5.07694 9.94007 5.07694 12.8077C5.07694 15.6753 7.40162 18 10.2692 18ZM10.2692 19.1539C13.7741 19.1539 16.6154 16.3126 16.6154 12.8077C16.6154 9.30282 13.7741 6.46155 10.2692 6.46155C6.76436 6.46155 3.9231 9.30282 3.9231 12.8077C3.9231 16.3126 6.76436 19.1539 10.2692 19.1539Z" fill="#FF7777"/>
<path fill-rule="evenodd" clip-rule="evenodd" d="M8.76922 13.3503V12.3319L11.6643 10.3846V11.994L10.3311 12.8354L11.6643 13.6897V15.2975L8.76922 13.3503Z" fill="#00C4F5"/>
<path fill-rule="evenodd" clip-rule="evenodd" d="M29.7692 12.2422L29.7692 14.0713L30.0639 14.0716C31.468 14.0716 31.78 14.5966 31.78 15.5789C31.78 15.7313 31.7627 15.9345 31.7627 15.9345L33.3921 15.9345C33.3921 15.9345 33.4615 15.6127 33.4615 15.0369C33.4615 12.886 31.988 12.2422 29.7692 12.2422Z" fill="#FF7777"/>
<path d="M18 12.8077C18 16.3126 20.8412 19.1539 24.3461 19.1539C27.851 19.1539 30.6923 16.3126 30.6923 12.8077C30.6923 9.30282 27.851 6.46155 24.3461 6.46155C20.8412 6.46155 18 9.30282 18 12.8077Z" fill="white"/>
<path fill-rule="evenodd" clip-rule="evenodd" d="M24.3461 18C21.4785 18 19.1538 15.6753 19.1538 12.8077C19.1538 9.94007 21.4785 7.61539 24.3461 7.61539C27.2137 7.61539 29.5384 9.94007 29.5384 12.8077C29.5384 15.6753 27.2137 18 24.3461 18ZM24.3461 19.1539C20.8412 19.1539 18 16.3126 18 12.8077C18 9.30282 20.8412 6.46155 24.3461 6.46155C27.851 6.46155 30.6923 9.30282 30.6923 12.8077C30.6923 16.3126 27.851 19.1539 24.3461 19.1539Z" fill="#FF7777"/>
<path fill-rule="evenodd" clip-rule="evenodd" d="M25.8461 13.3503V12.3319L22.951 10.3846V11.994L24.2842 12.8354L22.951 13.6897V15.2975L25.8461 13.3503Z" fill="#00C4F5"/>
</g>
<defs>
<clipPath id="clip0">
<rect width="34.62" height="30" fill="white"/>
</clipPath>
</defs>
</svg>
