<svg width="67" height="30" viewBox="0 0 67 30" fill="none" xmlns="http://www.w3.org/2000/svg">
<g clip-path="url(#clip0)">
<path d="M0 18.5727C0 20.5481 1.5884 21.8461 3.59673 21.8461C4.78346 21.8461 5.55028 21.4323 6.04323 20.8679L6.20755 21.6016H7.94201V15.2617C7.94201 13.117 6.97436 11.5368 4.14445 11.5368C2.55605 11.5368 1.27802 12.1576 0.51121 12.6655L1.27802 14.0953C1.97181 13.7002 2.88468 13.324 3.94362 13.324C5.20339 13.324 5.9702 14.0012 5.9702 15.13V16.0518C5.60505 15.7132 4.78346 15.3369 3.68801 15.3369C1.49711 15.3369 0 16.6726 0 18.5727ZM1.99007 18.5163C1.99007 17.538 2.7934 16.8231 3.99839 16.8231C5.20339 16.8231 6.02498 17.4816 6.02498 18.5163C6.02498 19.5322 5.18513 20.2094 4.01665 20.2094C2.81165 20.2094 1.99007 19.4945 1.99007 18.5163Z" fill="white"/>
<path d="M10.0339 21.6016H12.024V8H10.0339V21.6016Z" fill="white"/>
<path d="M14.2595 21.6016H16.1401V20.3223C16.3957 20.6609 17.3633 21.8461 19.2073 21.8461C21.9277 21.8461 23.863 19.7203 23.863 16.7103C23.863 13.6814 22.0555 11.5368 19.3351 11.5368C17.5276 11.5368 16.5052 12.6655 16.2496 13.0982V8H14.2595V21.6016ZM16.1766 16.7291C16.1766 14.5844 17.4363 13.3616 19.0247 13.3616C20.6862 13.3616 21.8547 14.7538 21.8547 16.7291C21.8547 18.742 20.6314 20.0401 19.0065 20.0401C17.2538 20.0401 16.1766 18.5351 16.1766 16.7291Z" fill="white"/>
<path d="M24.944 16.7291C24.944 19.7015 26.9158 21.8461 29.8918 21.8461C32.1557 21.8461 33.4155 20.5104 33.8719 19.7015L32.5574 18.6856C32.1922 19.2312 31.3707 20.0589 29.9283 20.0589C28.2304 20.0589 27.0071 18.9302 26.9706 17.1806H34.1458C34.1641 17.0113 34.1641 16.842 34.1641 16.6726C34.1641 13.5874 32.4661 11.5368 29.5814 11.5368C26.9706 11.5368 24.944 13.6814 24.944 16.7291ZM27.0436 15.7696C27.1714 14.227 28.2304 13.2487 29.5997 13.2487C30.969 13.2487 32.0644 14.1517 32.1375 15.7696H27.0436Z" fill="white"/>
<path d="M40.4359 11.5368C39.0849 11.5368 38.0807 12.3457 37.7156 13.324V11.7813H35.762V21.6016H37.7521V17.3687C37.7521 15.2429 38.3546 13.6062 40.4359 13.6062V11.5368Z" fill="white"/>
<path d="M42.6303 11.7813H41.5713V13.4745H42.6303V17.7262C42.6303 20.1342 43.324 21.7333 45.6427 21.7333C46.2635 21.7333 46.6104 21.658 46.6104 21.658V19.8896C46.6104 19.8896 46.3913 19.9084 46.227 19.9084C45.1681 19.9084 44.6021 19.5698 44.6021 18.046V13.4745H46.5374V11.7813H44.6021V9.73077H42.6303V11.7813Z" fill="white"/>
<path d="M52.7946 11.5368C51.5166 11.5368 50.5307 12.2893 50.1107 13.0606V11.7814H48.1572V21.6016H50.1473V15.6756C50.1473 14.3399 50.9689 13.3804 52.2286 13.3804C53.3241 13.3804 54.1457 14.1706 54.1457 15.5251V21.6016H56.1175V15.6944C56.1175 13.5498 55.2594 11.5368 52.7946 11.5368Z" fill="white"/>
<path d="M61.5164 21.8462C62.7944 21.8462 63.7803 21.1125 64.2003 20.3223V21.6016H66.1538V11.7814H64.1637V17.7074C64.1637 19.0619 63.3422 20.0025 62.0824 20.0025C60.9869 20.0025 60.1654 19.2124 60.1654 17.8579V11.7814H58.1935V17.6885C58.1935 19.8332 59.0516 21.8462 61.5164 21.8462Z" fill="white"/>
</g>
<defs>
<clipPath id="clip0">
<rect width="66.15" height="30" fill="white"/>
</clipPath>
</defs>
</svg>
